<?xml version="1.0" encoding="UTF-8"?>
<svg width="84px" height="66px" viewBox="0 0 84 66" version="1.1" xmlns="http://www.w3.org/2000/svg" xmlns:xlink="http://www.w3.org/1999/xlink">
    <!-- Generator: Sketch 41.2 (35397) - http://www.bohemiancoding.com/sketch -->
    <title>Group 8</title>
    <desc>Created with Sketch.</desc>
    <defs></defs>
    <g id="Page-1" stroke="none" stroke-width="1" fill="none" fill-rule="evenodd">
        <g id="home" transform="translate(-22.000000, -1695.000000)">
            <g id="Group-8" transform="translate(22.000000, 1695.000000)">
                <g id="noun_711112_cc-copy-11" transform="translate(4.000000, 0.000000)" fill="#000000">
                    <g id="Group">
                        <path d="M57.5158537,16.5 C54.6256098,16.5 52.2170732,14.0735294 52.2170732,11.1617647 C52.2170732,8.25 54.6256098,5.82352941 57.5158537,5.82352941 C60.4060976,5.82352941 62.8146341,8.25 62.8146341,11.1617647 C62.8146341,14.0735294 60.4060976,16.5 57.5158537,16.5 Z M57.5158537,8.73529412 C56.1670732,8.73529412 55.1073171,9.80294118 55.1073171,11.1617647 C55.1073171,12.5205882 56.1670732,13.5882353 57.5158537,13.5882353 C58.8646341,13.5882353 59.9243902,12.5205882 59.9243902,11.1617647 C59.9243902,9.80294118 58.8646341,8.73529412 57.5158537,8.73529412 Z" id="Shape"></path>
                        <g transform="translate(55.878049, 0.000000)" id="Shape">
                            <path d="M1.63780488,4.75588235 C0.867073171,4.75588235 0.192682927,4.07647059 0.192682927,3.3 L0.192682927,2.13529412 C0.192682927,1.35882353 0.867073171,0.679411765 1.63780488,0.679411765 C2.40853659,0.679411765 3.08292683,1.35882353 3.08292683,2.13529412 L3.08292683,3.3 C3.08292683,4.07647059 2.40853659,4.75588235 1.63780488,4.75588235 Z"></path>
                            <path d="M1.63780488,21.6441176 C0.867073171,21.6441176 0.192682927,20.9647059 0.192682927,20.1882353 L0.192682927,19.0235294 C0.192682927,18.2470588 0.867073171,17.5676471 1.63780488,17.5676471 C2.40853659,17.5676471 3.08292683,18.2470588 3.08292683,19.0235294 L3.08292683,20.1882353 C3.08292683,20.9647059 2.40853659,21.6441176 1.63780488,21.6441176 Z"></path>
                        </g>
                        <g transform="translate(49.134146, 2.911765)" id="Shape">
                            <path d="M13.9695122,4.07647059 C13.5841463,4.07647059 13.1987805,3.97941176 12.9097561,3.68823529 C12.3317073,3.10588235 12.3317073,2.23235294 12.9097561,1.65 L13.6804878,0.873529412 C14.2585366,0.291176471 15.1256098,0.291176471 15.7036585,0.873529412 C16.2817073,1.45588235 16.2817073,2.32941176 15.7036585,2.91176471 L14.9329268,3.68823529 C14.6439024,3.97941176 14.2585366,4.07647059 13.9695122,4.07647059 Z"></path>
                            <path d="M2.02317073,16.1117647 C1.63780488,16.1117647 1.25243902,16.0147059 0.963414634,15.7235294 C0.385365854,15.1411765 0.385365854,14.2676471 0.963414634,13.6852941 L1.73414634,12.9088235 C2.31219512,12.3264706 3.17926829,12.3264706 3.75731707,12.9088235 C4.33536585,13.4911765 4.33536585,14.3647059 3.75731707,14.9470588 L2.98658537,15.7235294 C2.79390244,15.9176471 2.40853659,16.1117647 2.02317073,16.1117647 Z"></path>
                        </g>
                        <path d="M66.4756098,12.6176471 L65.3195122,12.6176471 C64.5487805,12.6176471 63.8743902,11.9382353 63.8743902,11.1617647 C63.8743902,10.3852941 64.5487805,9.70588235 65.3195122,9.70588235 L66.4756098,9.70588235 C67.2463415,9.70588235 67.9207317,10.3852941 67.9207317,11.1617647 C67.9207317,11.9382353 67.3426829,12.6176471 66.4756098,12.6176471 Z" id="Shape"></path>
                        <path d="M49.7121951,12.6176471 L48.5560976,12.6176471 C47.7853659,12.6176471 47.1109756,11.9382353 47.1109756,11.1617647 C47.1109756,10.3852941 47.7853659,9.70588235 48.5560976,9.70588235 L49.7121951,9.70588235 C50.4829268,9.70588235 51.1573171,10.3852941 51.1573171,11.1617647 C51.1573171,11.9382353 50.4829268,12.6176471 49.7121951,12.6176471 Z" id="Shape"></path>
                        <g transform="translate(49.134146, 2.911765)" id="Shape">
                            <path d="M14.7402439,16.1117647 C14.354878,16.1117647 13.9695122,16.0147059 13.6804878,15.7235294 L12.9097561,14.9470588 C12.3317073,14.3647059 12.3317073,13.4911765 12.9097561,12.9088235 C13.4878049,12.3264706 14.354878,12.3264706 14.9329268,12.9088235 L15.7036585,13.6852941 C16.2817073,14.2676471 16.2817073,15.1411765 15.7036585,15.7235294 C15.5109756,15.9176471 15.1256098,16.1117647 14.7402439,16.1117647 Z"></path>
                            <path d="M2.8902439,4.07647059 C2.50487805,4.07647059 2.1195122,3.97941176 1.8304878,3.68823529 L1.0597561,2.91176471 C0.481707317,2.32941176 0.481707317,1.45588235 1.0597561,0.873529412 C1.63780488,0.291176471 2.50487805,0.291176471 3.08292683,0.873529412 L3.85365854,1.65 C4.43170732,2.23235294 4.43170732,3.10588235 3.85365854,3.68823529 C3.56463415,3.97941176 3.17926829,4.07647059 2.8902439,4.07647059 Z"></path>
                        </g>
                        <path d="M77.3621951,66 L1.63780488,66 C0.867073171,66 0.192682927,65.3205882 0.192682927,64.5441176 C0.192682927,63.7676471 0.867073171,63.0882353 1.63780488,63.0882353 L77.2658537,63.0882353 C78.0365854,63.0882353 78.7109756,63.7676471 78.7109756,64.5441176 C78.7109756,65.3205882 78.1329268,66 77.3621951,66 Z" id="Shape"></path>
                        <path d="M68.0170732,53.4794118 L39.5,53.4794118 C38.7292683,53.4794118 38.054878,52.8 38.054878,52.0235294 L38.054878,47.3647059 C38.054878,46.5882353 38.7292683,45.9088235 39.5,45.9088235 L68.0170732,45.9088235 C68.7878049,45.9088235 69.4621951,46.5882353 69.4621951,47.3647059 L69.4621951,52.0235294 C69.4621951,52.8 68.7878049,53.4794118 68.0170732,53.4794118 Z M40.945122,50.5676471 L66.5719512,50.5676471 L66.5719512,48.8205882 L40.945122,48.8205882 L40.945122,50.5676471 Z" id="Shape"></path>
                        <g transform="translate(41.426829, 57.264706)" id="Shape">
                            <path d="M1.92682927,7.57058824 C1.15609756,7.57058824 0.481707317,6.89117647 0.481707317,6.11470588 L0.481707317,1.45588235 C0.481707317,0.679411765 1.15609756,0 1.92682927,0 C2.69756098,0 3.37195122,0.679411765 3.37195122,1.45588235 L3.37195122,6.11470588 C3.37195122,6.89117647 2.79390244,7.57058824 1.92682927,7.57058824 Z"></path>
                            <path d="M22.7365854,7.57058824 C21.9658537,7.57058824 21.2914634,6.89117647 21.2914634,6.11470588 L21.2914634,1.45588235 C21.2914634,0.679411765 21.9658537,0 22.7365854,0 C23.5073171,0 24.1817073,0.679411765 24.1817073,1.45588235 L24.1817073,6.11470588 C24.1817073,6.89117647 23.5073171,7.57058824 22.7365854,7.57058824 Z"></path>
                        </g>
                        <g transform="translate(41.426829, 50.470588)" id="Shape">
                            <path d="M1.92682927,6.11470588 C1.15609756,6.11470588 0.481707317,5.43529412 0.481707317,4.65882353 L0.481707317,1.45588235 C0.481707317,0.679411765 1.15609756,0.582352941 1.92682927,0.582352941 C2.69756098,0.582352941 3.37195122,0.679411765 3.37195122,1.45588235 L3.37195122,4.65882353 C3.37195122,5.53235294 2.79390244,6.11470588 1.92682927,6.11470588 Z"></path>
                            <path d="M22.7365854,6.11470588 C21.9658537,6.11470588 21.2914634,5.43529412 21.2914634,4.65882353 L21.2914634,1.45588235 C21.2914634,0.679411765 21.9658537,0.582352941 22.7365854,0.582352941 C23.5073171,0.582352941 24.1817073,0.679411765 24.1817073,1.45588235 L24.1817073,4.65882353 C24.1817073,5.53235294 23.5073171,6.11470588 22.7365854,6.11470588 Z"></path>
                        </g>
                        <path d="M26.0121951,36.6882353 C18.497561,36.6882353 12.3317073,30.4764706 12.3317073,22.9058824 C12.3317073,15.3352941 18.497561,9.12352941 26.0121951,9.12352941 C33.5268293,9.12352941 39.6926829,15.3352941 39.6926829,22.9058824 C39.6926829,30.4764706 33.5268293,36.6882353 26.0121951,36.6882353 Z M26.0121951,11.9382353 C20.0390244,11.9382353 15.2219512,16.7911765 15.2219512,22.8088235 C15.2219512,28.8264706 20.0390244,33.6794118 26.0121951,33.6794118 C31.9853659,33.6794118 36.802439,28.8264706 36.802439,22.8088235 C36.802439,16.8882353 31.9853659,11.9382353 26.0121951,11.9382353 Z" id="Shape"></path>
                        <path d="M26.0121951,65.6117647 C25.2414634,65.6117647 24.5670732,64.9323529 24.5670732,64.1558824 L24.5670732,27.4676471 C24.5670732,26.6911765 25.2414634,26.0117647 26.0121951,26.0117647 C26.7829268,26.0117647 27.4573171,26.6911765 27.4573171,27.4676471 L27.4573171,64.1558824 C27.4573171,65.0294118 26.7829268,65.6117647 26.0121951,65.6117647 Z" id="Shape"></path>
                        <path d="M26.0121951,54.5470588 C25.7231707,54.5470588 25.3378049,54.45 25.0487805,54.1588235 L16.4743902,46.7823529 C15.8963415,46.2970588 15.8,45.3264706 16.2817073,44.7441176 C16.7634146,44.1617647 17.7268293,44.0647059 18.304878,44.55 L26.8792683,51.9264706 C27.4573171,52.4117647 27.5536585,53.3823529 27.0719512,53.9647059 C26.7829268,54.3529412 26.397561,54.5470588 26.0121951,54.5470588 Z" id="Shape"></path>
                        <path d="M15.7036585,51.6352941 C11.4646341,51.6352941 8.09268293,48.2382353 8.09268293,43.9676471 C8.09268293,39.6970588 11.4646341,36.3 15.7036585,36.3 C19.9426829,36.3 23.3146341,39.6970588 23.3146341,43.9676471 C23.3146341,48.2382353 19.9426829,51.6352941 15.7036585,51.6352941 Z M15.7036585,39.2117647 C13.102439,39.2117647 10.9829268,41.3470588 10.9829268,43.9676471 C10.9829268,46.5882353 13.102439,48.7235294 15.7036585,48.7235294 C18.304878,48.7235294 20.4243902,46.5882353 20.4243902,43.9676471 C20.4243902,41.3470588 18.304878,39.2117647 15.7036585,39.2117647 Z" id="Shape"></path>
                        <path d="M14.4512195,65.6117647 C14.1621951,65.6117647 13.8731707,65.5147059 13.6804878,65.4176471 C13.0060976,64.9323529 12.8134146,64.0588235 13.295122,63.3794118 L16.3780488,58.6235294 C16.8597561,57.9441176 17.7268293,57.75 18.4012195,58.2352941 C19.0756098,58.7205882 19.2682927,59.5941176 18.7865854,60.2735294 L15.7036585,65.0294118 C15.4146341,65.4176471 14.9329268,65.6117647 14.4512195,65.6117647 Z" id="Shape"></path>
                        <path d="M14.4512195,65.6117647 C13.9695122,65.6117647 13.4878049,65.4176471 13.1987805,64.9323529 L10.1158537,60.1764706 C9.63414634,59.4970588 9.82682927,58.6235294 10.5012195,58.1382353 C11.1756098,57.6529412 12.0426829,57.8470588 12.5243902,58.5264706 L15.6073171,63.2823529 C16.0890244,63.9617647 15.8963415,64.8352941 15.2219512,65.3205882 C15.0292683,65.5147059 14.7402439,65.6117647 14.4512195,65.6117647 Z" id="Shape"></path>
                        <path d="M68.6914634,58.4294118 L38.8256098,58.4294118 C38.054878,58.4294118 37.3804878,57.75 37.3804878,56.9735294 C37.3804878,56.1970588 38.054878,55.5176471 38.8256098,55.5176471 L68.6914634,55.5176471 C69.4621951,55.5176471 70.1365854,56.1970588 70.1365854,56.9735294 C70.1365854,57.75 69.4621951,58.4294118 68.6914634,58.4294118 Z" id="Shape"></path>
                    </g>
                </g>
                <circle id="Oval-2" fill-opacity="0.5" fill="#44B2B0" style="mix-blend-mode: multiply;" cx="44.5" cy="35.5" r="27.5"></circle>
                <ellipse id="Oval-2-Copy" fill-opacity="0.5" fill="#44B2B0" style="mix-blend-mode: multiply;" cx="22" cy="33" rx="22" ry="22"></ellipse>
                <circle id="Oval-2-Copy-2" fill-opacity="0.5" fill="#44B2B0" style="mix-blend-mode: multiply;" cx="70.5" cy="42.5" r="13.5"></circle>
            </g>
        </g>
    </g>
</svg>