<?xml version="1.0" encoding="UTF-8"?>
<svg width="55px" height="51px" viewBox="0 0 55 51" version="1.1" xmlns="http://www.w3.org/2000/svg" xmlns:xlink="http://www.w3.org/1999/xlink">
    <!-- Generator: Sketch 41.2 (35397) - http://www.bohemiancoding.com/sketch -->
    <title>Group 14</title>
    <desc>Created with Sketch.</desc>
    <defs></defs>
    <g id="Page-1" stroke="none" stroke-width="1" fill="none" fill-rule="evenodd">
        <g id="home" transform="translate(-38.000000, -2097.000000)">
            <g id="Group-14" transform="translate(38.000000, 2097.000000)">
                <circle id="Oval-2-Copy-8" fill-opacity="0.5" fill="#44B2B0" style="mix-blend-mode: multiply;" cx="38.5" cy="33.5" r="15.5"></circle>
                <circle id="Oval-2-Copy-12" fill-opacity="0.5" fill="#44B2B0" style="mix-blend-mode: multiply;" cx="12" cy="12" r="12"></circle>
                <circle id="Oval-2-Copy-13" fill-opacity="0.5" fill="#44B2B0" style="mix-blend-mode: multiply;" cx="20.5" cy="42.5" r="8.5"></circle>
                <g id="noun_399859_cc" transform="translate(2.000000, 2.000000)" fill="#000000">
                    <g id="Group">
                        <path d="M52.5141667,11.4181667 C52.5135778,11.0728333 52.3057,10.745 51.9623778,10.6073333 L26.3763333,0.354083333 C26.1095667,0.247333333 25.8057,0.275916667 25.5636667,0.431666667 L0.886277778,16.3199167 C0.626577778,16.4873333 0.485833333,16.7685 0.485833333,17.0549167 L0.484655556,17.05375 L0.484655556,23.8484167 L0.484655556,37.5818333 C0.484655556,37.93825 0.703133333,38.2596667 1.03703333,38.39325 L26.6230778,48.6459167 C26.8863111,48.7450833 27.0888889,48.7631667 27.4357444,48.5683333 L52.1125444,32.6795 C52.3634111,32.5185 52.5147556,32.242 52.5147556,31.9456667 L52.5147556,18.2128333 L52.5141667,11.4181667 L52.5141667,11.4181667 Z M26.0707,46.5365833 L2.25132222,36.9920833 L2.25132222,25.14575 L26.0707,34.6908333 L26.0707,46.5365833 Z M26.0707,32.8031667 L2.25132222,23.2580833 L2.25132222,18.3510833 L26.0707,27.8955833 L26.0707,32.8031667 Z M26.8586333,26.3240833 L3.27068889,16.8723333 L26.1407778,2.14783333 L49.7287222,11.60075 L26.8586333,26.3240833 Z M50.7480889,31.4708333 L27.8373667,46.2215833 L27.8373667,34.5759167 L50.7475,19.8251667 L50.7475,31.4708333 L50.7480889,31.4708333 Z M50.7480889,17.738 L27.8373667,32.4881667 L27.8373667,27.7806667 L50.7475,13.0310833 L50.7475,17.738 L50.7480889,17.738 Z M35.9711,14.6311667 L32.9554,13.4236667 L36.1083111,11.3930833 C36.3845,11.2145833 36.5376111,10.9001667 36.5064,10.5758333 C36.4751889,10.2515 36.2631889,9.97091667 35.9581444,9.84841667 L30.8677889,7.80966667 C30.6016111,7.70233333 30.2965667,7.73091667 30.0551222,7.88725 L25.8663556,10.584 L21.7070333,8.91741667 C21.4402667,8.81066667 21.1364,8.83925 20.8943667,8.995 L16.2904333,11.9583333 C16.0142444,12.13625 15.8611333,12.4518333 15.8923444,12.7755833 C15.9247333,13.1005 16.1355556,13.3805 16.4411889,13.503 L19.4557111,14.7105 L16.3004444,16.74225 C16.0242556,16.92075 15.8711444,17.2351667 15.9023556,17.5595 C15.9335667,17.8838333 16.1449778,18.1644167 16.4506111,18.2869167 L21.5403778,20.3268333 C21.6475556,20.3688333 21.7600333,20.3904167 21.8719222,20.3904167 C22.0409333,20.3904167 22.2081778,20.3425833 22.3536333,20.24925 L26.5447556,17.5501667 L30.7046667,19.21675 C30.9714333,19.3240833 31.2758889,19.2955 31.5173333,19.1391667 L36.1218556,16.1746667 C36.3980444,15.99675 36.5511556,15.6823333 36.5199444,15.358 C36.4875556,15.03425 36.2773222,14.75425 35.9711,14.6311667 Z M30.9402222,17.42475 L26.7803111,15.7581667 C26.5135444,15.6508333 26.2096778,15.6794167 25.9670556,15.83575 L21.7759333,18.5348333 L18.6842667,17.29525 L21.8395333,15.2640833 C22.1157222,15.0855833 22.2688333,14.7705833 22.2376222,14.44625 C22.2064111,14.1219167 21.9944111,13.8413333 21.6893667,13.7194167 L18.6748444,12.5119167 L21.4720667,10.7105833 L25.6313889,12.3771667 C25.8987444,12.4845 26.2032,12.4553333 26.4446444,12.2995833 L30.6328222,9.60283333 L33.7250778,10.84125 L30.5721667,12.87125 C30.2959778,13.0491667 30.1428667,13.36475 30.1740778,13.6890833 C30.2058778,14.0134167 30.4172889,14.2934167 30.7223333,14.4159167 L33.7380333,15.624 L30.9402222,17.42475 Z" id="Shape"></path>
                    </g>
                </g>
            </g>
        </g>
    </g>
</svg>