<?xml version="1.0" encoding="UTF-8"?>
<svg width="57px" height="40px" viewBox="0 0 57 40" version="1.1" xmlns="http://www.w3.org/2000/svg" xmlns:xlink="http://www.w3.org/1999/xlink">
    <!-- Generator: Sketch 42 (36781) - http://www.bohemiancoding.com/sketch -->
    <title>Group</title>
    <desc>Created with Sketch.</desc>
    <defs></defs>
    <g id="Page-1" stroke="none" stroke-width="1" fill="none" fill-rule="evenodd">
        <g id="home-copy" transform="translate(-29.000000, -1062.000000)" fill-rule="nonzero" fill="#000000">
            <g id="noun_128477_cc" transform="translate(29.000000, 1062.000000)">
                <g id="Group">
                    <g id="noun_738230_cc">
                        <g id="Group">
                            <g id="Shape">
                                <path d="M56.3552941,24.7029412 C56.3552941,18.1605882 48.8017647,12.8570588 39.4847059,12.8570588 C30.1670588,12.8570588 22.6141176,18.1605882 22.6141176,24.7029412 C22.6141176,31.2447059 30.1670588,36.5488235 39.4847059,36.5488235 C42.1141176,36.5488235 44.6029412,36.1258824 46.8223529,35.3723529 L52.8294118,39.8611765 L50.6582353,33.5747059 C54.1505882,31.4047059 56.3552941,28.2352941 56.3552941,24.7029412 Z"></path>
                                <path d="M33.6888235,11.2576471 C33.0470588,5.12764706 25.7652941,0.294117647 16.8705882,0.294117647 C7.55352941,0.294117647 0,5.59764706 0,12.1394118 C0,15.8047059 2.37176471,19.0811765 6.09705882,21.2541176 L3.88529412,27.6564706 L10.1217647,22.9964706 C12.1888235,23.6305882 14.47,23.9852941 16.8705882,23.9852941 C17.8576471,23.9852941 18.8217647,23.9229412 19.7623529,23.8088235 C20.09,17.8470588 25.8635294,12.8705882 33.6888235,11.2576471 Z"></path>
                            </g>
                        </g>
                    </g>
                </g>
            </g>
        </g>
    </g>
</svg>