<?xml version="1.0" encoding="UTF-8"?>
<svg width="51px" height="40px" viewBox="0 0 51 40" version="1.1" xmlns="http://www.w3.org/2000/svg" xmlns:xlink="http://www.w3.org/1999/xlink">
    <!-- Generator: Sketch 42 (36781) - http://www.bohemiancoding.com/sketch -->
    <title>Group</title>
    <desc>Created with Sketch.</desc>
    <defs></defs>
    <g id="Page-1" stroke="none" stroke-width="1" fill="none" fill-rule="evenodd">
        <g id="home-copy" transform="translate(-262.000000, -1062.000000)">
            <g id="noun_128477_cc" transform="translate(262.000000, 1062.000000)">
                <g id="Group">
                    <g id="Shape">
                        <path d="M35.25,20.4375 C35.6875,20.4375 36,20.8125 36,21.1875 L36,24.875 C36,25.3125 35.625,25.625 35.25,25.625 L27.875,25.625 L27.875,33.4375 C27.875,33.875 27.5,34.1875 27.125,34.1875 L23.3125,34.1875 C22.875,34.1875 22.5625,33.8125 22.5625,33.4375 L22.5625,25.625 L15.1875,25.625 C14.75,25.625 14.4375,25.25 14.4375,24.875 L14.4375,21.1875 C14.4375,20.75 14.8125,20.4375 15.1875,20.4375 L22.5625,20.4375 L22.5625,12.6875 C22.5625,12.25 22.9375,11.9375 23.3125,11.9375 L27.125,11.9375 C27.375,11.9375 27.5625,12 27.625,12.125 L27.6875,12.1875 C27.8125,12.3125 27.875,12.5 27.875,12.6875 L27.875,20.4375 C30.3125,20.4375 32.8125,20.4375 35.25,20.4375 Z"></path>
                        <path d="M15.125,25.625 L22.5,25.625 L22.5,33.4375 C22.5,33.875 22.875,34.1875 23.25,34.1875 L27.0625,34.1875 C27.5,34.1875 27.8125,33.8125 27.8125,33.4375 L27.8125,25.625 L35.1875,25.625 C35.625,25.625 35.9375,25.25 35.9375,24.875 L35.9375,21.1875 C35.9375,20.75 35.5625,20.4375 35.1875,20.4375 L27.8125,20.4375 L27.8125,12.6875 C27.8125,12.4375 27.75,12.25 27.625,12.1875 L27.5625,12.125 C27.5,12 27.3125,11.875 27.125,11.875 L23.3125,11.875 C22.875,11.875 22.5625,12.25 22.5625,12.625 L22.5625,20.375 L15.1875,20.375 C14.75,20.375 14.4375,20.75 14.4375,21.125 L14.4375,24.8125 C14.3125,25.3125 14.6875,25.625 15.125,25.625 Z M36.75,1.9375 L13.625,1.9375 L13.625,6.125 L36.75,6.125 L36.75,1.9375 Z M38.3125,1.1875 L38.3125,6.125 L46.9375,6.125 C48.75,6.125 50.1875,7.625 50.1875,9.375 L50.1875,36.5625 C50.1875,38.375 48.75,39.8125 46.9375,39.8125 L3.4375,39.8125 C1.625,39.8125 0.125,38.3125 0.125,36.5625 L0.125,9.375 C0.125,7.5625 1.625,6.125 3.4375,6.125 L12.0625,6.125 L12.0625,1.1875 C12.0625,0.75 12.4375,0.4375 12.8125,0.4375 L37.5,0.4375 C37.9375,0.375 38.3125,0.75 38.3125,1.1875 Z" fill="#000000" fill-rule="nonzero"></path>
                    </g>
                </g>
            </g>
        </g>
    </g>
</svg>