<?xml version="1.0" encoding="UTF-8"?>
<svg width="57px" height="54px" viewBox="0 0 57 54" version="1.1" xmlns="http://www.w3.org/2000/svg" xmlns:xlink="http://www.w3.org/1999/xlink">
    <!-- Generator: Sketch 41.2 (35397) - http://www.bohemiancoding.com/sketch -->
    <title>Group 4</title>
    <desc>Created with Sketch.</desc>
    <defs></defs>
    <g id="Page-1" stroke="none" stroke-width="1" fill="none" fill-rule="evenodd">
        <g id="home" transform="translate(-25.000000, -4673.000000)">
            <g id="Group-4" transform="translate(25.000000, 4674.000000)">
                <polyline id="Path-142-Copy-28" fill="#81C9C8" points="56.162043 37.1157194 28.6250938 52.7959552 0.90625 36.5565772 28.7135551 21.2143726 56.162043 37.1157194"></polyline>
                <polygon id="Path-142-Copy-27" stroke-opacity="0.8" stroke="#555555" stroke-width="1.5" stroke-linejoin="round" fill="#FFFFFF" points="28.6250938 43.4789375 0.90625 27.2395595 28.7135551 11.8973549 56.162043 27.7987017"></polygon>
                <polygon id="Path-3-Copy-4" stroke="#3EAEAC" stroke-width="1.5" stroke-linejoin="round" fill="#FFFFFF" points="27.5498997 4.89283836 35.6500724 0.421875 43.3430822 4.85541858 35.2860569 9.43431381"></polygon>
                <path d="M35.0734917,15.9329859 L7.95780797,31.0285866" id="Path-4" stroke="#81C9C8"></path>
                <path d="M41.6162993,19.868248 L14.9518509,34.9994368" id="Path-4-Copy" stroke="#81C9C8"></path>
                <path d="M48.3182475,23.7413949 L21.6537991,38.8725837" id="Path-4-Copy-2" stroke="#81C9C8"></path>
                <path d="M22.213937,15.8260013 L49.040026,31.280743" id="Line" stroke="#81C9C8" stroke-linecap="square"></path>
                <path d="M15.8604315,19.4901204 L42.566173,35.0684695" id="Line-Copy" stroke="#81C9C8" stroke-linecap="square"></path>
                <path d="M8.53474716,23.3764606 L35.2404886,38.9548098" id="Line-Copy-2" stroke="#81C9C8" stroke-linecap="square"></path>
                <polygon id="Path-5" fill="#3EAEAC" points="29.6739754 27.1079486 35.3529752 23.9104536 41.2260384 27.277084 35.5697229 30.4810602"></polygon>
                <polygon id="Path-142-Copy-30" stroke="#3EAEAC" stroke-width="1.5" stroke-linejoin="round" points="28.6250938 43.3724922 0.90625 27.1331142 28.7135551 11.7909095 56.162043 27.6922564"></polygon>
            </g>
        </g>
    </g>
</svg>