<?xml version="1.0" encoding="UTF-8"?>
<svg width="56px" height="55px" viewBox="0 0 56 55" version="1.1" xmlns="http://www.w3.org/2000/svg" xmlns:xlink="http://www.w3.org/1999/xlink">
    <!-- Generator: Sketch 41.2 (35397) - http://www.bohemiancoding.com/sketch -->
    <title>Group 13</title>
    <desc>Created with Sketch.</desc>
    <defs></defs>
    <g id="Page-1" stroke="none" stroke-width="1" fill="none" fill-rule="evenodd">
        <g id="home" transform="translate(-38.000000, -1997.000000)">
            <g id="Group-13" transform="translate(38.000000, 1997.000000)">
                <circle id="Oval-2-Copy-7" fill-opacity="0.5" fill="#44B2B0" style="mix-blend-mode: multiply;" cx="20.5" cy="34.5" r="20.5"></circle>
                <circle id="Oval-2-Copy-9" fill-opacity="0.5" fill="#44B2B0" style="mix-blend-mode: multiply;" cx="43" cy="13" r="13"></circle>
                <g id="noun_561513_cc" transform="translate(4.000000, 3.000000)" fill="#000000">
                    <g id="Group">
                        <path d="M21.2326531,9.51363636 L7.18163265,9.51363636 L7.18163265,6.53409091 L21.2846939,6.53409091 L21.2846939,9.51363636 L21.2326531,9.51363636 Z M31.4846939,17.7204545 L7.18163265,17.7204545 L7.18163265,20.7 L31.4846939,20.7 L31.4846939,17.7204545 Z M31.4846939,12.1272727 L7.18163265,12.1272727 L7.18163265,15.1068182 L31.4846939,15.1068182 L31.4846939,12.1272727 Z M45.1714286,11.8659091 L41.8928571,11.8659091 L41.8928571,15.6818182 L45.1714286,15.6818182 C46.0561224,15.6818182 46.8367347,16.4136364 46.8367347,17.3545455 L46.8367347,33.8204545 C46.8367347,34.7090909 46.1081633,35.4931818 45.1714286,35.4931818 L42.4653061,35.4931818 L42.4653061,39.7272727 L38.1979592,35.4409091 L18.1102041,35.4409091 C17.2255102,35.4409091 16.444898,34.7090909 16.444898,33.7681818 L16.444898,30.9454545 L15.8204082,30.9454545 L12.6979592,34.0818182 C12.8540816,36.9568182 15.2479592,39.2045455 18.1102041,39.2045455 L36.6887755,39.2045455 L42.8295918,45.3727273 C43.1938776,45.7386364 43.7142857,45.9477273 44.2867347,45.9477273 C45.4316327,45.9477273 46.3163265,45.0068182 46.3163265,43.9090909 L46.3163265,39.0477273 C48.7622449,38.525 50.6357143,36.3295455 50.6357143,33.7159091 L50.6357143,17.3022727 C50.6357143,14.3227273 48.1897959,11.8659091 45.1714286,11.8659091 Z M0.364285714,21.9022727 L0.364285714,5.43636364 C0.364285714,2.40454545 2.81020408,0 5.77653061,0 L32.8377551,0 C35.8561224,0 38.25,2.45681818 38.25,5.43636364 L38.25,21.9022727 C38.25,24.9340909 35.8040816,27.3386364 32.8377551,27.3386364 L14.3112245,27.3386364 L8.17040816,33.5590909 C7.80612245,33.925 7.28571429,34.1340909 6.76530612,34.1340909 C6.24489796,34.1340909 5.77653061,33.925 5.36020408,33.5590909 C4.94387755,33.1931818 4.73571429,32.6181818 4.73571429,32.0431818 L4.73571429,27.1818182 C2.2377551,26.7113636 0.364285714,24.5159091 0.364285714,21.9022727 Z M4.16326531,21.9022727 C4.16326531,22.7909091 4.89183673,23.575 5.82857143,23.575 L8.53469388,23.575 L8.53469388,27.8613636 L12.8020408,23.575 L32.9418367,23.575 C33.8265306,23.575 34.6071429,22.8431818 34.6071429,21.9022727 L34.6071429,5.43636364 C34.6071429,4.54772727 33.8785714,3.76363636 32.9418367,3.76363636 L5.88061224,3.76363636 C4.99591837,3.76363636 4.21530612,4.49545455 4.21530612,5.43636364 L4.21530612,21.9022727 L4.16326531,21.9022727 Z" id="Shape"></path>
                    </g>
                </g>
            </g>
        </g>
    </g>
</svg>