<?xml version="1.0" encoding="UTF-8"?>
<svg width="43px" height="60px" viewBox="0 0 43 60" version="1.1" xmlns="http://www.w3.org/2000/svg" xmlns:xlink="http://www.w3.org/1999/xlink">
    <!-- Generator: Sketch 41.2 (35397) - http://www.bohemiancoding.com/sketch -->
    <title>Group 12</title>
    <desc>Created with Sketch.</desc>
    <defs></defs>
    <g id="Page-1" stroke="none" stroke-width="1" fill="none" fill-rule="evenodd">
        <g id="home" transform="translate(-49.000000, -1893.000000)">
            <g id="Group-12" transform="translate(49.000000, 1893.000000)">
                <circle id="Oval-2-Copy-6" fill-opacity="0.5" fill="#44B2B0" style="mix-blend-mode: multiply;" cx="27.5" cy="19.5" r="15.5"></circle>
                <circle id="Oval-2-Copy-10" fill-opacity="0.5" fill="#44B2B0" style="mix-blend-mode: multiply;" cx="12.5" cy="39.5" r="7.5"></circle>
                <circle id="Oval-2-Copy-11" fill-opacity="0.5" fill="#44B2B0" style="mix-blend-mode: multiply;" cx="3.5" cy="11.5" r="3.5"></circle>
                <g id="noun_637461_cc" transform="translate(4.000000, 0.000000)" fill="#000000">
                    <g id="Group">
                        <g>
                            <path d="M26.1311795,32.1612 C24.9585299,27.14232 23.0483077,22.32216 20.4665641,17.856 C20.6807521,16.8708 20.8848889,15.5376 20.888,14.01 C20.8875214,12.58848 20.7077949,10.99416 20.1549744,9.3756 C19.3393846,6.9492 17.6088889,4.48344 14.6396923,2.76048 C11.6728889,1.02816 7.57052991,0.00144 1.91452991,0 C0.857230769,0 0,0.85944 0,1.92 C0,2.98032 0.857230769,3.84048 1.91452991,3.84048 C5.38030769,3.83928 8.05897436,4.26432 10.0979487,4.92816 C13.1607179,5.93592 14.7820855,7.40616 15.7647179,8.98176 C16.7392137,10.5612 17.0594188,12.36264 17.0594188,14.00976 C17.0594188,14.36184 17.0436239,14.70312 17.0184957,15.03216 C16.888547,15.07464 16.7643419,15.13416 16.650188,15.21552 C14.3427009,16.82808 12.0359316,18.44064 9.72868376,20.05344 C9.48147009,20.15016 9.25005128,20.29848 9.05309402,20.50176 C8.98536752,20.57328 8.16044444,21.42648 7.31230769,22.8348 C6.47230769,24.2412 5.572,26.22672 5.56362393,28.6068 C5.55644444,30.23064 6.0274188,32.02464 7.18211966,33.68112 C8.33418803,35.34336 10.1149402,36.85776 12.6524103,38.18352 C12.8790427,38.30184 13.1185983,38.36784 13.3581538,38.3904 C12.6574359,41.9904 10.9331624,47.63544 6.7671453,55.48344 C5.99032479,56.94552 6.54290598,58.76208 8.00082051,59.54112 C8.44905983,59.78064 8.9305641,59.89416 9.40512821,59.89416 C10.4751111,59.8944 11.5094359,59.31744 12.0476581,58.30416 C16.4955897,49.93248 18.4395556,43.67088 19.254906,39.41208 C19.9135043,39.34176 20.5718632,39.27144 21.2302222,39.20112 C21.5915897,42.91896 21.9713846,48.76032 21.9713846,56.89368 C21.9713846,58.55064 23.3108376,59.89392 24.9630769,59.89392 C26.6148376,59.89392 27.9545299,58.55064 27.9545299,56.89368 C27.9545299,40.81272 26.5021197,33.25752 26.4628718,33.0576 C26.3989744,32.7336 26.2843419,32.4336 26.1311795,32.1612 Z M10.326735,31.49112 C9.62099145,30.4596 9.39866667,29.53752 9.39196581,28.60656 C9.38502564,27.5388 9.74471795,26.4396 10.2099487,25.50888 C11.6901197,28.30224 12.8302222,31.26264 13.608,34.326 C11.9600684,33.35568 10.9405812,32.3784 10.326735,31.49112 Z" id="Shape"></path>
                            <ellipse id="Oval" transform="translate(9.620213, 12.304677) rotate(-12.938358) translate(-9.620213, -12.304677) " cx="9.62021346" cy="12.304677" rx="5.3833552" ry="5.39873621"></ellipse>
                        </g>
                    </g>
                </g>
            </g>
        </g>
    </g>
</svg>