<?xml version="1.0" encoding="UTF-8"?>
<svg width="39px" height="40px" viewBox="0 0 39 40" version="1.1" xmlns="http://www.w3.org/2000/svg" xmlns:xlink="http://www.w3.org/1999/xlink">
    <!-- Generator: Sketch 42 (36781) - http://www.bohemiancoding.com/sketch -->
    <title>noun_531722_cc copy 3</title>
    <desc>Created with Sketch.</desc>
    <defs></defs>
    <g id="Page-1" stroke="none" stroke-width="1" fill="none" fill-rule="evenodd">
        <g id="home-copy" transform="translate(-82.000000, -947.000000)" fill="#303030">
            <g id="noun_531722_cc-copy-3" transform="translate(82.000000, 947.000000)">
                <g id="Group">
                    <path d="M36.5207104,11.3917534 C36.509245,11.4217114 36.0410128,12.5797171 34.6995606,13.9585242 L24.8618753,4.1212087 C26.024689,2.94212148 26.987413,2.44910916 27.0957795,2.39622037 L26.1386033,0.394213119 C25.775409,0.568043418 17.560263,4.67154803 18.2296946,18.5539316 C4.32844861,18.6219843 0.666916777,27.039809 0.512688618,27.4122496 L2.56018763,28.2677166 C2.61344627,28.1430766 3.14529302,26.9577019 4.52668912,25.5648404 L14.3773193,35.4154706 C13.1771505,36.6555833 12.1519216,37.1485956 12.0402264,37.1996352 L12.9437741,39.2260526 C13.3058589,39.0659069 21.6400971,35.1957787 20.6148682,20.814835 C35.0272492,21.0755805 38.4535554,12.5504988 38.594099,12.1806471 L36.5207104,11.3917534 Z M33.0082288,15.4057539 C32.4101786,15.834412 31.7204052,16.2549334 30.9255939,16.6436476 L22.2277915,7.94510542 C22.6083689,7.14289709 23.0218631,6.44572663 23.4431242,5.84064925 L33.0082288,15.4057539 Z M28.685772,17.5412776 C27.8573042,17.80979 26.9463595,18.0383583 25.94739,18.2147776 L20.7128789,12.9802665 C20.8745041,11.9705713 21.0923468,11.0481612 21.3523525,10.208228 L28.685772,17.5412776 Z M15.9769279,20.8680937 C16.7395621,20.8059586 17.5410307,20.7715624 18.3876213,20.7708227 C18.4578931,21.6862056 18.4900702,22.5546174 18.4852621,23.376058 L15.9769279,20.8680937 Z M18.3021855,26.331543 C18.173847,27.3748946 17.986702,28.329112 17.7525859,29.1938253 L10.5116293,21.9528687 C11.3312207,21.6747402 12.2299603,21.4332271 13.2119166,21.2416439 L18.3021855,26.331543 Z M6.22393857,24.1238982 C6.82346817,23.693021 7.51028278,23.2691709 8.29621764,22.8756487 L16.939282,31.5183432 C16.5797862,32.3405235 16.1829353,33.0561866 15.7738793,33.6734691 L6.22393857,24.1238982 Z M20.4521335,18.5931359 C20.4007241,17.6207957 20.3988748,16.7065223 20.4340107,15.8399598 L23.1402156,18.5461647 C22.2965839,18.5997932 21.3996935,18.6156968 20.4521335,18.5931359 Z" id="Shape"></path>
                </g>
            </g>
        </g>
    </g>
</svg>