<?xml version="1.0" encoding="UTF-8"?>
<svg width="58px" height="59px" viewBox="0 0 58 59" version="1.1" xmlns="http://www.w3.org/2000/svg" xmlns:xlink="http://www.w3.org/1999/xlink">
    <!-- Generator: Sketch 41.2 (35397) - http://www.bohemiancoding.com/sketch -->
    <title>Group 10</title>
    <desc>Created with Sketch.</desc>
    <defs></defs>
    <g id="Page-1" stroke="none" stroke-width="1" fill="none" fill-rule="evenodd">
        <g id="home" transform="translate(-35.000000, -1788.000000)">
            <g id="Group-10" transform="translate(35.000000, 1788.000000)">
                <circle id="Oval-2-Copy-3" fill-opacity="0.5" fill="#44B2B0" style="mix-blend-mode: multiply;" cx="15" cy="29" r="8"></circle>
                <circle id="Oval-2-Copy-5" fill-opacity="0.5" fill="#44B2B0" style="mix-blend-mode: multiply;" cx="41.5" cy="44.5" r="10.5"></circle>
                <circle id="Oval-2-Copy-4" fill-opacity="0.5" fill="#44B2B0" style="mix-blend-mode: multiply;" cx="33.5" cy="27.5" r="15.5"></circle>
                <g id="noun_531722_cc" fill="#000000">
                    <g id="Group">
                        <path d="M54.512531,17.0038672 C54.4954172,17.0485839 53.7965117,18.7770777 51.7941971,20.8351501 L37.110005,6.15151004 C38.8456755,4.39154897 40.2826826,3.65565559 40.4444356,3.57671129 L39.0157094,0.588421053 C38.4735884,0.847888337 26.2112749,6.97297242 27.2105,27.6944714 C6.46084608,27.7960501 0.995471366,40.3608913 0.765263158,40.9168138 L3.82145653,42.1937241 C3.90095289,42.0076805 4.69481237,40.2383345 6.7567492,38.1592838 L21.4602634,52.862798 C19.668835,54.7138486 18.1385301,55.449742 17.9718085,55.525926 L19.3204863,58.5506521 C19.8609512,58.311611 32.3010273,52.5348755 30.7707224,31.0692023 C52.2833206,31.4584032 57.3975864,18.7334651 57.6073684,18.1814071 L54.512531,17.0038672 Z M49.2696357,22.9953533 C48.3769578,23.6351885 47.3473695,24.2628786 46.1609968,24.8430916 L33.1782476,11.8592382 C33.7463153,10.6618243 34.3635162,9.6211949 34.9923103,8.71802793 L49.2696357,22.9953533 Z M42.8177332,26.1829365 C41.5811232,26.5837306 40.2214042,26.9249025 38.7302954,27.1882342 L30.9170178,19.3749566 C31.1582672,17.8678381 31.4834293,16.4910053 31.8715262,15.2372815 L42.8177332,26.1829365 Z M23.8479144,31.1486986 C24.9862581,31.0559529 26.1825679,31.0046115 27.4462288,31.0035074 C27.5511198,32.369851 27.5991489,33.6660834 27.5919721,34.8922043 L23.8479144,31.1486986 Z M27.3187034,39.3037002 C27.1271393,40.8610559 26.8477979,42.2853657 26.4983451,43.5760774 L15.6901526,32.7678849 C16.9135132,32.3527372 18.2550143,31.9922433 19.7207284,31.7062773 L27.3187034,39.3037002 Z M9.2901436,36.0084657 C10.1850297,35.365318 11.2102015,34.7326595 12.3833249,34.1452697 L25.2843695,47.0457623 C24.7477691,48.2729873 24.1554108,49.3412197 23.5448346,50.2626046 L9.2901436,36.0084657 Z M30.5278169,27.7529896 C30.4510808,26.3016289 30.4483205,24.9369414 30.500766,23.6434694 L34.5401748,27.6828782 C33.2809304,27.7629266 31.9421896,27.7866651 30.5278169,27.7529896 Z" id="Shape"></path>
                    </g>
                </g>
            </g>
        </g>
    </g>
</svg>