<?xml version="1.0" encoding="UTF-8"?>
<svg width="50px" height="50px" viewBox="0 0 50 50" version="1.1" xmlns="http://www.w3.org/2000/svg" xmlns:xlink="http://www.w3.org/1999/xlink">
    <!-- Generator: Sketch 41.2 (35397) - http://www.bohemiancoding.com/sketch -->
    <title>Group 3</title>
    <desc>Created with Sketch.</desc>
    <defs></defs>
    <g id="Page-1" stroke="none" stroke-width="1" fill="none" fill-rule="evenodd">
        <g id="home" transform="translate(-26.000000, -4586.000000)">
            <g id="Group-3" transform="translate(26.000000, 4586.000000)">
                <rect id="Rectangle-9" fill-opacity="0.3" fill="#3EAEAC" x="6.72191049" y="0.0390625" width="38.352802" height="38.352802" rx="1"></rect>
                <rect id="Rectangle-9-Copy" fill-opacity="0.5" fill="#3EAEAC" x="10.9227493" y="5.53820576" width="38.9007556" height="38.9007556" rx="1"></rect>
                <rect id="Rectangle-9-Copy-2" fill-opacity="0.25" fill="#3EAEAC" x="0.56640625" y="8.90338723" width="40.2523745" height="40.2523745" rx="1"></rect>
                <rect id="Rectangle-10" fill="#3EAEAC" x="10.8788143" y="9.2644043" width="30.3317663" height="29.0109584"></rect>
                <path d="M16.0023326,20.3878748 C16.0023326,26.2459763 24.0479407,32.0101126 25.8960151,32.9830758 C27.5292806,32.0740152 35.8330908,26.0290095 35.8330908,20.3878748 C35.8330908,17.5239141 33.4898503,15.1806735 30.6258896,15.1806735 C28.543009,15.1806735 26.6283249,16.3956872 25.8038514,18.1748143 C24.9793778,16.3956872 23.2924144,15.1806735 21.2095339,15.1806735 C18.3021799,15.1806735 16.0023326,17.5239141 16.0023326,20.3878748 Z" id="Shape-Copy-20" fill="#FFFFFF"></path>
            </g>
        </g>
    </g>
</svg>