<?xml version="1.0" encoding="UTF-8"?>
<svg width="19px" height="40px" viewBox="0 0 19 40" version="1.1" xmlns="http://www.w3.org/2000/svg" xmlns:xlink="http://www.w3.org/1999/xlink">
    <!-- Generator: Sketch 42 (36781) - http://www.bohemiancoding.com/sketch -->
    <title>noun_637461_cc copy 4</title>
    <desc>Created with Sketch.</desc>
    <defs></defs>
    <g id="Page-1" stroke="none" stroke-width="1" fill="none" fill-rule="evenodd">
        <g id="home-copy" transform="translate(-90.000000, -808.000000)" fill="#303030">
            <g id="noun_637461_cc-copy-4" transform="translate(90.000000, 808.000000)">
                <g id="Group">
                    <g>
                        <path d="M17.2293491,21.2051868 C16.4561736,17.8960352 15.1966864,14.7179077 13.4944379,11.7731868 C13.6356607,11.1236044 13.7702564,10.2445714 13.7723077,9.23736264 C13.7719921,8.3000967 13.6534911,7.2488967 13.2889941,6.18171429 C12.7512426,4.58189011 11.6102564,2.95611429 9.65254438,1.8200967 C7.69641026,0.677907692 4.99155819,0.000949450549 1.26232742,0 C0.565207101,0 0,0.566663736 0,1.26593407 C0,1.96504615 0.565207101,2.53218462 1.26232742,2.53218462 C3.54745562,2.53139341 5.31360947,2.81163956 6.65798817,3.24933626 C8.67739645,3.91379341 9.74642998,4.88318242 10.3943195,5.92203956 C11.0368442,6.96342857 11.2479684,8.15119121 11.2479684,9.2372044 C11.2479684,9.46934505 11.2375542,9.69436484 11.2209862,9.91131429 C11.1353057,9.93932308 11.0534122,9.97856703 10.978146,10.032211 C9.45672584,11.0954374 7.93577909,12.1586637 6.41451677,13.2220484 C6.25151874,13.2858198 6.09893491,13.3836132 5.96907298,13.517644 C5.92441815,13.5648 5.38051282,14.1273495 4.82130178,15.0559121 C4.26745562,15.9832088 3.67384615,17.2923429 3.66832347,18.8616264 C3.66358974,19.9322901 3.97412229,21.1151473 4.73546351,22.2073319 C5.49506903,23.3033143 6.66919132,24.3018198 8.34224852,25.1759473 C8.49167653,25.2539604 8.64962525,25.2974769 8.80757396,25.3123516 C8.34556213,27.685978 7.2086785,31.4079824 4.46185404,36.5824879 C3.94966469,37.5464967 4.31400394,38.7442286 5.27526627,39.2578813 C5.57080868,39.4158066 5.88828402,39.4906549 6.20118343,39.4906549 C6.90666667,39.4908132 7.58863905,39.1104 7.94351085,38.4423033 C10.876213,32.9225143 12.1579487,28.7939868 12.6955424,25.9859868 C13.129783,25.939622 13.5638659,25.8932571 13.9979487,25.8468923 C14.236213,28.2982154 14.4866272,32.1496615 14.4866272,37.5123165 C14.4866272,38.6048176 15.369783,39.4904967 16.4591716,39.4904967 C17.5482446,39.4904967 18.4315582,38.6048176 18.4315582,37.5123165 C18.4315582,26.9094857 17.473925,21.9280352 17.4480473,21.7962198 C17.4059172,21.5825934 17.3303353,21.3847912 17.2293491,21.2051868 Z M6.80883629,20.7633758 C6.34351085,20.0832527 6.19692308,19.4752879 6.19250493,18.8614681 C6.18792899,18.1574505 6.42508876,17.4327033 6.73183432,16.8190418 C7.7077712,18.6608176 8.45948718,20.6127297 8.97230769,22.6325275 C7.88575937,21.992756 7.21357002,21.3483956 6.80883629,20.7633758 Z" id="Shape"></path>
                        <ellipse id="Oval" transform="translate(6.342998, 8.112974) rotate(-12.938358) translate(-6.342998, -8.112974) " cx="6.34299789" cy="8.11297383" rx="3.54946497" ry="3.55960629"></ellipse>
                    </g>
                </g>
            </g>
        </g>
    </g>
</svg>