<?xml version="1.0" encoding="UTF-8"?>
<svg width="374px" height="81px" viewBox="0 0 374 81" version="1.1" xmlns="http://www.w3.org/2000/svg" xmlns:xlink="http://www.w3.org/1999/xlink">
    <!-- Generator: Sketch 41.2 (35397) - http://www.bohemiancoding.com/sketch -->
    <title>Group 3</title>
    <desc>Created with Sketch.</desc>
    <defs></defs>
    <g id="Page-1" stroke="none" stroke-width="1" fill="none" fill-rule="evenodd">
        <g id="Group-3">
            <path d="M112.81,11.22 L112.81,11.13 C112.81,5.055 108.04,1.5 101.11,1.5 L89.68,1.5 L89.68,33 L92.02,33 L92.02,21.255 L100.525,21.255 C107.095,21.255 112.81,17.835 112.81,11.22 Z M110.47,11.355 C110.47,16.035 106.51,19.095 100.66,19.095 L92.02,19.095 L92.02,3.66 L100.93,3.66 C106.6,3.66 110.47,6.27 110.47,11.265 L110.47,11.355 Z M150.39,33 L139.995,19.545 C145.305,18.825 149.22,15.81 149.22,10.545 L149.22,10.455 C149.22,5.19 144.765,1.5 137.97,1.5 L124.74,1.5 L124.74,33 L127.08,33 L127.08,19.95 L137.385,19.95 L147.42,33 L150.39,33 Z M146.88,10.635 C146.88,15.18 142.965,17.835 137.7,17.835 L127.08,17.835 L127.08,3.66 L137.835,3.66 C143.55,3.66 146.88,6.315 146.88,10.545 L146.88,10.635 Z M184.91,33 L184.91,30.84 L164.615,30.84 L164.615,18.195 L182.66,18.195 L182.66,16.035 L164.615,16.035 L164.615,3.66 L184.685,3.66 L184.685,1.5 L162.275,1.5 L162.275,33 L184.91,33 Z M224.2,28.05 L222.625,26.52 C219.43,29.67 216.325,31.425 211.78,31.425 C204.265,31.425 198.46,25.215 198.46,17.25 L198.46,17.16 C198.46,9.24 204.175,3.075 211.735,3.075 C216.46,3.075 219.61,5.055 222.355,7.71 L224.02,6 C220.78,3.03 217.405,0.96 211.78,0.96 C202.69,0.96 196.03,8.34 196.03,17.25 L196.03,17.34 C196.03,26.385 202.69,33.54 211.69,33.54 C217.27,33.54 220.87,31.335 224.2,28.05 Z M238.29,33 L238.29,1.5 L235.95,1.5 L235.95,33 L238.29,33 Z M274.07,24.855 L274.07,24.765 C274.07,20.175 271.01,17.565 263.72,16.08 C256.25,14.55 254.54,12.525 254.54,9.195 L254.54,9.105 C254.54,5.82 257.6,3.165 262.235,3.165 C265.7,3.165 268.67,4.155 271.64,6.72 L273.125,4.875 C269.93,2.31 266.915,1.05 262.325,1.05 C256.475,1.05 252.2,4.65 252.2,9.33 L252.2,9.42 C252.2,14.19 255.26,16.755 262.82,18.285 C269.975,19.725 271.73,21.66 271.73,24.99 L271.73,25.08 C271.73,28.68 268.49,31.335 263.765,31.335 C259.13,31.335 255.935,29.85 252.47,26.655 L250.94,28.41 C254.72,31.785 258.59,33.45 263.63,33.45 C269.705,33.45 274.07,29.94 274.07,24.855 Z M289.42,33 L289.42,1.5 L287.08,1.5 L287.08,33 L289.42,33 Z M334.38,17.25 C334.425,17.205 334.425,17.205 334.38,17.16 C334.38,8.565 328.125,0.96 318.585,0.96 C309.045,0.96 302.7,8.655 302.7,17.25 L302.7,17.34 C302.7,25.935 308.955,33.54 318.495,33.54 C328.035,33.54 334.38,25.845 334.38,17.25 Z M331.95,17.34 C331.95,25.125 326.37,31.425 318.585,31.425 C310.8,31.425 305.13,25.035 305.13,17.25 L305.13,17.16 C305.13,9.375 310.71,3.075 318.495,3.075 C326.28,3.075 331.95,9.465 331.95,17.25 L331.95,17.34 Z M373.535,33 L373.535,1.5 L371.285,1.5 L371.285,28.905 L349.55,1.5 L347.345,1.5 L347.345,33 L349.595,33 L349.595,5.01 L371.78,33 L373.535,33 Z" id="PRECISION-Copy-2" fill="#474747"></path>
            <path d="M113.71,59.48 L113.71,59.39 C113.71,52.955 109.165,48.5 101.65,48.5 L88.78,48.5 L88.78,80 L95.71,80 L95.71,70.55 L100.975,70.55 C108.04,70.55 113.71,66.77 113.71,59.48 Z M106.69,59.615 C106.69,62.315 104.665,64.385 101.2,64.385 L95.71,64.385 L95.71,54.755 L101.065,54.755 C104.53,54.755 106.69,56.42 106.69,59.525 L106.69,59.615 Z M151.065,80 L143.37,68.75 C147.375,67.265 150.12,64.07 150.12,58.985 L150.12,58.895 C150.12,52.415 145.665,48.5 138.24,48.5 L123.84,48.5 L123.84,80 L130.77,80 L130.77,69.92 L136.215,69.92 L142.965,80 L151.065,80 Z M143.1,59.345 C143.1,62 141.165,63.8 137.79,63.8 L130.77,63.8 L130.77,54.755 L137.655,54.755 C141.03,54.755 143.1,56.285 143.1,59.255 L143.1,59.345 Z M168.62,80 L168.62,48.5 L161.69,48.5 L161.69,80 L168.62,80 Z M204.265,70.685 L204.265,70.595 C204.265,65.105 200.665,62.81 194.275,61.145 C188.83,59.75 187.48,59.075 187.48,57.005 L187.48,56.915 C187.48,55.385 188.875,54.17 191.53,54.17 C194.185,54.17 196.93,55.34 199.72,57.275 L203.32,52.055 C200.125,49.49 196.21,48.05 191.62,48.05 C185.185,48.05 180.595,51.83 180.595,57.545 L180.595,57.635 C180.595,63.89 184.69,65.645 191.035,67.265 C196.3,68.615 197.38,69.515 197.38,71.27 L197.38,71.36 C197.38,73.205 195.67,74.33 192.835,74.33 C189.235,74.33 186.265,72.845 183.43,70.505 L179.335,75.41 C183.115,78.785 187.93,80.45 192.7,80.45 C199.495,80.45 204.265,76.94 204.265,70.685 Z M246.795,80 L246.795,48.5 L239.325,48.5 L231.045,61.82 L222.765,48.5 L215.295,48.5 L215.295,80 L222.09,80 L222.09,59.57 L230.865,72.89 L231.045,72.89 L239.91,59.435 L239.91,80 L246.795,80 Z" id="PRISM" fill="#3EAEAC"></path>
            <path d="M66.4009432,73.0744056 L54.7903307,4.03089445 L0.00442172869,53.7076411 L66.4009432,73.0744056 Z M3.99557827,52.7884526 L53.424513,7.96910555 L63.8998381,70.2615319 L3.99557827,52.7884526 Z" id="Path-2" fill="#3EAEAC"></path>
            <path d="M28.6401137,42.9939117 L3.3810575,53.4045318 L2.6189425,51.5554291 L28.1021399,41.0524283 L53.2202898,5.42379875 L54.8549055,6.57620125 L30.139624,41.6333856 L64.735228,69.4654725 L63.4815689,71.0237853 L28.6401137,42.9939117 Z" id="Combined-Shape" fill="#3EAEAC"></path>
        </g>
    </g>
</svg>